<svg width="800" height="600" viewBox="0 0 800 600" xmlns="http://www.w3.org/2000/svg">
  <!-- Background -->
  <rect width="800" height="600" fill="#87CEEB"/>
  
  <!-- Ground -->
  <rect x="0" y="500" width="800" height="100" fill="#90EE90"/>
  
  <!-- Main School Building -->
  <rect x="200" y="200" width="400" height="300" fill="#D2691E" stroke="#8B4513" stroke-width="2"/>
  
  <!-- Roof -->
  <polygon points="180,200 400,100 620,200" fill="#8B0000"/>
  
  <!-- Windows -->
  <rect x="230" y="240" width="60" height="80" fill="#87CEFA" stroke="#000" stroke-width="2"/>
  <rect x="320" y="240" width="60" height="80" fill="#87CEFA" stroke="#000" stroke-width="2"/>
  <rect x="410" y="240" width="60" height="80" fill="#87CEFA" stroke="#000" stroke-width="2"/>
  <rect x="500" y="240" width="60" height="80" fill="#87CEFA" stroke="#000" stroke-width="2"/>
  
  <rect x="230" y="350" width="60" height="80" fill="#87CEFA" stroke="#000" stroke-width="2"/>
  <rect x="320" y="350" width="60" height="80" fill="#87CEFA" stroke="#000" stroke-width="2"/>
  <rect x="410" y="350" width="60" height="80" fill="#87CEFA" stroke="#000" stroke-width="2"/>
  <rect x="500" y="350" width="60" height="80" fill="#87CEFA" stroke="#000" stroke-width="2"/>
  
  <!-- Main Door -->
  <rect x="370" y="380" width="60" height="120" fill="#8B4513" stroke="#654321" stroke-width="2"/>
  <circle cx="415" cy="440" r="3" fill="#FFD700"/>
  
  <!-- School Sign -->
  <rect x="300" y="150" width="200" height="40" fill="#FFFFFF" stroke="#000" stroke-width="2"/>
  <text x="400" y="175" text-anchor="middle" font-family="Arial" font-size="16" font-weight="bold" fill="#000">EAGLE SCHOOLS AGBANI</text>
  
  <!-- Trees -->
  <circle cx="100" cy="450" r="50" fill="#228B22"/>
  <rect x="95" y="450" width="10" height="50" fill="#8B4513"/>
  
  <circle cx="700" cy="450" r="50" fill="#228B22"/>
  <rect x="695" y="450" width="10" height="50" fill="#8B4513"/>
  
  <!-- Clouds -->
  <ellipse cx="150" cy="80" rx="40" ry="20" fill="#FFFFFF"/>
  <ellipse cx="170" cy="70" rx="30" ry="15" fill="#FFFFFF"/>
  <ellipse cx="130" cy="70" rx="25" ry="12" fill="#FFFFFF"/>
  
  <ellipse cx="650" cy="60" rx="35" ry="18" fill="#FFFFFF"/>
  <ellipse cx="670" cy="50" rx="25" ry="12" fill="#FFFFFF"/>
  <ellipse cx="630" cy="50" rx="20" ry="10" fill="#FFFFFF"/>
</svg>